# xmcd CD database file generated by OrangeCD 5.2
#
# Track frame offsets:
#	182
#	20230
#	39205
#	57087
#	78725
#	111765
#	144742
#	167817
#	185760
#	205422
#	223472
#	242335
#	277380
#	305230
#	318770
#
# Disc length: 4488 seconds
#
# Revision: 0
# Processed by: cddbd v1.5.1PL0 Copyright (c) Steve Scherf et al.
# Submitted via: OrangeCD 5.2
#
DISCID=ec11860f
DTITLE=Albert King - Black Music - Blues
DYEAR=1993
DGENRE=Blues
TTITLE0=Born under a bad sign
TTITLE1=The sky is crying
TTITLE2=Drowning on dry land
TTITLE3=Cold in hand 
TTITLE4=I'll play the blues for you
TTITLE5=Breaking up somebody's home
TTITLE6=Don't burn down the bridge
TTITLE7=She caught the Katy
TTITLE8=Everybody wants to go to heaven
TTITLE9=Going back to Iuka
TTITLE10=I wanna get funky
TTITLE11=Crosscut saw
TTITLE12=I found love in the food stamp line
TTITLE13=They made the Queen welcome
TTITLE14=Phone boot
EXTD=
EXTT0=
EXTT1=
EXTT2=
EXTT3=
EXTT4=
EXTT5=
EXTT6=
EXTT7=
EXTT8=
EXTT9=
EXTT10=
EXTT11=
EXTT12=
EXTT13=
EXTT14=
PLAYORDER=
